{
    "asset" : {
        "generator" : "Khronos glTF Blender I/O v1.0.5",
        "version" : "2.0"
    },
    "scene" : 0,
    "scenes" : [
        {
            "name" : "Scene",
            "nodes" : [
                0,
                1,
                2,
                3,
                4
            ]
        }
    ],
    "nodes" : [
        {
            "name" : "Light",
            "rotation" : [
                0.16907575726509094,
                0.7558803558349609,
                -0.27217137813568115,
                0.570947527885437
            ],
            "translation" : [
                4.076245307922363,
                5.903861999511719,
                -1.0054539442062378
            ]
        },
        {
            "name" : "Camera",
            "rotation" : [
                0.483536034822464,
                0.33687159419059753,
                -0.20870360732078552,
                0.7804827094078064
            ],
            "translation" : [
                7.358891487121582,
                4.958309173583984,
                6.925790786743164
            ]
        },
        {
            "mesh" : 0,
            "name" : "Sphere",
            "rotation" : [
                0.003754778765141964,
                0.9996687173843384,
                0.0021572464611381292,
                0.025370437651872635
            ],
            "scale" : [
                0.10000000149011612,
                0.10000000149011612,
                0.10000000149011612
            ],
            "translation" : [
                0.5329633951187134,
                0.45965778827667236,
                -0.24104328453540802
            ]
        },
        {
            "mesh" : 1,
            "name" : "Sphere.001",
            "rotation" : [
                -0.0010842682095244527,
                0.7670901417732239,
                -0.001514728064648807,
                -0.6415365934371948
            ],
            "scale" : [
                0.15000000596046448,
                0.15000000596046448,
                0.15000000596046448
            ],
            "translation" : [
                0.25493931770324707,
                0.3500101566314697,
                -0.40365859866142273
            ]
        },
        {
            "mesh" : 2,
            "name" : "Sphere.002",
            "rotation" : [
                0.0009811179479584098,
                0.8872416615486145,
                -0.0015834920341148973,
                0.46130117774009705
            ],
            "scale" : [
                0.20000000298023224,
                0.20000000298023224,
                0.20000000298023224
            ],
            "translation" : [
                0.24717479944229126,
                0.5425779819488525,
                -0.0006719827651977539
            ]
        }
    ],
    "materials" : [
        {
            "doubleSided" : true,
            "name" : "Material.005",
            "pbrMetallicRoughness" : {
                "baseColorTexture" : {
                    "index" : 0,
                    "texCoord" : 0
                },
                "metallicFactor" : 0,
                "roughnessFactor" : 0.1772727370262146
            }
        },
        {
            "doubleSided" : true,
            "name" : "Material.006",
            "pbrMetallicRoughness" : {
                "baseColorTexture" : {
                    "index" : 1,
                    "texCoord" : 0
                },
                "metallicFactor" : 0,
                "roughnessFactor" : 0.1772727370262146
            }
        },
        {
            "doubleSided" : true,
            "name" : "Material.007",
            "pbrMetallicRoughness" : {
                "baseColorTexture" : {
                    "index" : 2,
                    "texCoord" : 0
                },
                "metallicFactor" : 0,
                "roughnessFactor" : 0.1772727370262146
            }
        }
    ],
    "meshes" : [
        {
            "name" : "Sphere.007",
            "primitives" : [
                {
                    "attributes" : {
                        "POSITION" : 0,
                        "NORMAL" : 1,
                        "TEXCOORD_0" : 2
                    },
                    "indices" : 3,
                    "material" : 0
                }
            ]
        },
        {
            "name" : "Sphere.010",
            "primitives" : [
                {
                    "attributes" : {
                        "POSITION" : 4,
                        "NORMAL" : 5,
                        "TEXCOORD_0" : 6
                    },
                    "indices" : 3,
                    "material" : 1
                }
            ]
        },
        {
            "name" : "Sphere.011",
            "primitives" : [
                {
                    "attributes" : {
                        "POSITION" : 7,
                        "NORMAL" : 8,
                        "TEXCOORD_0" : 9
                    },
                    "indices" : 3,
                    "material" : 2
                }
            ]
        }
    ],
    "textures" : [
        {
            "source" : 0
        },
        {
            "source" : 0
        },
        {
            "source" : 0
        }
    ],
    "images" : [
        {
            "bufferView" : 4,
            "mimeType" : "image/jpeg",
            "name" : "blenderTexture"
        }
    ],
    "accessors" : [
        {
            "bufferView" : 0,
            "componentType" : 5126,
            "count" : 2526,
            "max" : [
                2.275649070739746,
                1.8470790386199951,
                2.1976215839385986
            ],
            "min" : [
                -1.68002188205719,
                -1.7764936685562134,
                -1.694621205329895
            ],
            "type" : "VEC3"
        },
        {
            "bufferView" : 1,
            "componentType" : 5126,
            "count" : 2526,
            "type" : "VEC3"
        },
        {
            "bufferView" : 2,
            "componentType" : 5126,
            "count" : 2526,
            "type" : "VEC2"
        },
        {
            "bufferView" : 3,
            "componentType" : 5123,
            "count" : 12456,
            "type" : "SCALAR"
        },
        {
            "bufferView" : 5,
            "componentType" : 5126,
            "count" : 2526,
            "max" : [
                2.275649070739746,
                1.8470790386199951,
                2.1976215839385986
            ],
            "min" : [
                -1.68002188205719,
                -1.7764936685562134,
                -1.694621205329895
            ],
            "type" : "VEC3"
        },
        {
            "bufferView" : 6,
            "componentType" : 5126,
            "count" : 2526,
            "type" : "VEC3"
        },
        {
            "bufferView" : 7,
            "componentType" : 5126,
            "count" : 2526,
            "type" : "VEC2"
        },
        {
            "bufferView" : 8,
            "componentType" : 5126,
            "count" : 2526,
            "max" : [
                2.275649070739746,
                1.8470790386199951,
                2.1976215839385986
            ],
            "min" : [
                -1.68002188205719,
                -1.7764936685562134,
                -1.694621205329895
            ],
            "type" : "VEC3"
        },
        {
            "bufferView" : 9,
            "componentType" : 5126,
            "count" : 2526,
            "type" : "VEC3"
        },
        {
            "bufferView" : 10,
            "componentType" : 5126,
            "count" : 2526,
            "type" : "VEC2"
        }
    ],
    "bufferViews" : [
        {
            "buffer" : 0,
            "byteLength" : 30312,
            "byteOffset" : 0
        },
        {
            "buffer" : 0,
            "byteLength" : 30312,
            "byteOffset" : 30312
        },
        {
            "buffer" : 0,
            "byteLength" : 20208,
            "byteOffset" : 60624
        },
        {
            "buffer" : 0,
            "byteLength" : 24912,
            "byteOffset" : 80832
        },
        {
            "buffer" : 0,
            "byteLength" : 767990,
            "byteOffset" : 105744
        },
        {
            "buffer" : 0,
            "byteLength" : 30312,
            "byteOffset" : 873736
        },
        {
            "buffer" : 0,
            "byteLength" : 30312,
            "byteOffset" : 904048
        },
        {
            "buffer" : 0,
            "byteLength" : 20208,
            "byteOffset" : 934360
        },
        {
            "buffer" : 0,
            "byteLength" : 30312,
            "byteOffset" : 954568
        },
        {
            "buffer" : 0,
            "byteLength" : 30312,
            "byteOffset" : 984880
        },
        {
            "buffer" : 0,
            "byteLength" : 20208,
            "byteOffset" : 1015192
        }
    ],
    "buffers" : [
        {
            "byteLength" : 1035400,
            "uri" : "data:application/octet-stream;base64,"
        }
    ]
}
