{
    "asset" : {
        "generator" : "Khronos glTF Blender I/O v1.0.5",
        "version" : "2.0"
    },
    "scene" : 0,
    "scenes" : [
        {
            "name" : "Scene",
            "nodes" : [
                0,
                1
            ]
        }
    ],
    "nodes" : [
        {
            "mesh" : 0,
            "name" : "Sphere",
            "rotation" : [
                -0.864736795425415,
                0.4992559850215912,
                0.027266204357147217,
                -0.04722641035914421
            ],
            "scale" : [
                0.10000000149011612,
                0.10000000149011612,
                0.10000000149011612
            ],
            "translation" : [
                0.09098606556653976,
                0.08365078270435333,
                0.03936922550201416
            ]
        },
        {
            "name" : "Sun",
            "translation" : [
                -0.3383183479309082,
                9.725530624389648,
                -0.36262378096580505
            ]
        }
    ],
    "materials" : [
        {
            "doubleSided" : true,
            "name" : "Material.008",
            "pbrMetallicRoughness" : {
                "baseColorTexture" : {
                    "index" : 0,
                    "texCoord" : 0
                },
                "metallicFactor" : 0.28333333134651184,
                "roughnessFactor" : 0.07727273553609848
            }
        },
        {
            "doubleSided" : true,
            "name" : "Material.004",
            "pbrMetallicRoughness" : {
                "baseColorTexture" : {
                    "index" : 1,
                    "texCoord" : 0
                },
                "metallicFactor" : 0.2666666805744171,
                "roughnessFactor" : 0.08560606837272644
            }
        },
        {
            "doubleSided" : true,
            "name" : "Material.003",
            "pbrMetallicRoughness" : {
                "baseColorTexture" : {
                    "index" : 2,
                    "texCoord" : 0
                },
                "metallicFactor" : 0.4166666567325592,
                "roughnessFactor" : 0.1772727370262146
            }
        }
    ],
    "meshes" : [
        {
            "name" : "Sphere.004",
            "primitives" : [
                {
                    "attributes" : {
                        "POSITION" : 0,
                        "NORMAL" : 1,
                        "TEXCOORD_0" : 2
                    },
                    "indices" : 3,
                    "material" : 0
                },
                {
                    "attributes" : {
                        "POSITION" : 4,
                        "NORMAL" : 5,
                        "TEXCOORD_0" : 6
                    },
                    "indices" : 7,
                    "material" : 1
                },
                {
                    "attributes" : {
                        "POSITION" : 8,
                        "NORMAL" : 9,
                        "TEXCOORD_0" : 10
                    },
                    "indices" : 11,
                    "material" : 2
                }
            ]
        }
    ],
    "textures" : [
        {
            "source" : 0
        },
        {
            "source" : 0
        },
        {
            "source" : 0
        }
    ],
    "images" : [
        {
            "bufferView" : 4,
            "mimeType" : "image/jpeg",
            "name" : "blenderTexture"
        }
    ],
    "accessors" : [
        {
            "bufferView" : 0,
            "componentType" : 5126,
            "count" : 2523,
            "max" : [
                2.275649070739746,
                1.8470790386199951,
                2.1976215839385986
            ],
            "min" : [
                -1.68002188205719,
                -1.7764936685562134,
                -1.694621205329895
            ],
            "type" : "VEC3"
        },
        {
            "bufferView" : 1,
            "componentType" : 5126,
            "count" : 2523,
            "type" : "VEC3"
        },
        {
            "bufferView" : 2,
            "componentType" : 5126,
            "count" : 2523,
            "type" : "VEC2"
        },
        {
            "bufferView" : 3,
            "componentType" : 5123,
            "count" : 12456,
            "type" : "SCALAR"
        },
        {
            "bufferView" : 5,
            "componentType" : 5126,
            "count" : 2523,
            "max" : [
                0.465839147567749,
                4.2871246337890625,
                5.246537208557129
            ],
            "min" : [
                -5.56569766998291,
                -1.2234773635864258,
                -0.49695682525634766
            ],
            "type" : "VEC3"
        },
        {
            "bufferView" : 6,
            "componentType" : 5126,
            "count" : 2523,
            "type" : "VEC3"
        },
        {
            "bufferView" : 7,
            "componentType" : 5126,
            "count" : 2523,
            "type" : "VEC2"
        },
        {
            "bufferView" : 8,
            "componentType" : 5123,
            "count" : 12456,
            "type" : "SCALAR"
        },
        {
            "bufferView" : 9,
            "componentType" : 5126,
            "count" : 2523,
            "max" : [
                0.3683173656463623,
                7.625369548797607,
                2.1921956539154053
            ],
            "min" : [
                -5.961121559143066,
                -0.21156692504882812,
                -6.334990501403809
            ],
            "type" : "VEC3"
        },
        {
            "bufferView" : 10,
            "componentType" : 5126,
            "count" : 2523,
            "type" : "VEC3"
        },
        {
            "bufferView" : 11,
            "componentType" : 5126,
            "count" : 2523,
            "type" : "VEC2"
        },
        {
            "bufferView" : 12,
            "componentType" : 5123,
            "count" : 12456,
            "type" : "SCALAR"
        }
    ],
    "bufferViews" : [
        {
            "buffer" : 0,
            "byteLength" : 30276,
            "byteOffset" : 0
        },
        {
            "buffer" : 0,
            "byteLength" : 30276,
            "byteOffset" : 30276
        },
        {
            "buffer" : 0,
            "byteLength" : 20184,
            "byteOffset" : 60552
        },
        {
            "buffer" : 0,
            "byteLength" : 24912,
            "byteOffset" : 80736
        },
        {
            "buffer" : 0,
            "byteLength" : 147396,
            "byteOffset" : 105648
        },
        {
            "buffer" : 0,
            "byteLength" : 30276,
            "byteOffset" : 253044
        },
        {
            "buffer" : 0,
            "byteLength" : 30276,
            "byteOffset" : 283320
        },
        {
            "buffer" : 0,
            "byteLength" : 20184,
            "byteOffset" : 313596
        },
        {
            "buffer" : 0,
            "byteLength" : 24912,
            "byteOffset" : 333780
        },
        {
            "buffer" : 0,
            "byteLength" : 30276,
            "byteOffset" : 358692
        },
        {
            "buffer" : 0,
            "byteLength" : 30276,
            "byteOffset" : 388968
        },
        {
            "buffer" : 0,
            "byteLength" : 20184,
            "byteOffset" : 419244
        },
        {
            "buffer" : 0,
            "byteLength" : 24912,
            "byteOffset" : 439428
        }
    ],
    "buffers" : [
        {
            "byteLength" : 464340,
            "uri" : "data:application/octet-stream;base64,"
        }
    ]
}
